<?xml version="1.0" encoding="UTF-8" standalone="no" ?>
<!DOCTYPE svg PUBLIC "-//W3C//DTD SVG 1.1//EN" "http://www.w3.org/Graphics/SVG/1.1/DTD/svg11.dtd">
<svg xmlns="http://www.w3.org/2000/svg" xmlns:xlink="http://www.w3.org/1999/xlink" version="1.1" width="500" height="500" viewBox="0 0 500 500" xml:space="preserve">
<desc>Created with Fabric.js 5.3.0</desc>
<defs>
</defs>
<g transform="matrix(7.8480000022 0 0 7.8479999992 250.00005 250.0000500001)" id="-lfXp_nSycqFHfVPXR2Gu"  >
<path style="stroke: rgb(0,0,0); stroke-width: 2; stroke-dasharray: none; stroke-linecap: butt; stroke-dashoffset: 0; stroke-linejoin: miter; stroke-miterlimit: 4; fill: none; fill-rule: nonzero; opacity: 1;"  transform=" translate(0, 0)" d="M 0 -28.66972 C 15.82569 -28.66972 28.66972 -15.825680000000002 28.66972 0 C 28.66972 15.82569 15.825680000000002 28.66972 0 28.66972 C -15.82569 28.66972 -28.66972 15.825680000000002 -28.66972 0 C -28.66972 -15.82569 -15.825680000000002 -28.66972 0 -28.66972 z" stroke-linecap="round" />
</g>
<g transform="matrix(1 0 0 1 -18.9220183486 323.1840754145)" id="0GVtLLXqJAsPGSGGPjjUD"  >
<path style="stroke: rgb(0,0,0); stroke-width: 1; stroke-dasharray: none; stroke-linecap: butt; stroke-dashoffset: 0; stroke-linejoin: miter; stroke-miterlimit: 4; fill: rgb(255,255,255); fill-opacity: 0; fill-rule: nonzero; opacity: 1;"  transform=" translate(0, 0)" d="M 0 0" stroke-linecap="round" />
</g>
<g transform="matrix(1 0 0 1 249.1308124571 288.8787611303)" id="vrK40TgCAj7VfSd48Yk3S"  >
<path style="stroke: rgb(0,0,0); stroke-width: 15; stroke-dasharray: none; stroke-linecap: butt; stroke-dashoffset: 0; stroke-linejoin: miter; stroke-miterlimit: 4; fill: rgb(255,255,255); fill-opacity: 0; fill-rule: nonzero; opacity: 1;"  transform=" translate(0, 0)" d="M -225.49445 -44.69427 C -225.49445 -44.69427 -217.66438 34.92917 -221.40354 -17.421540000000004 C -225.1427 -69.77225 -172.78769 -102.85731000000001 -141.40354 -102.96967000000001 C -110.01938999999999 -103.08202000000001 -70.56343 -85.56294000000001 -62.767129999999995 -30.242400000000004 C -54.97082999999999 25.078139999999998 -29.433339999999994 98.118 62.73433 102.75626 C 154.902 107.39453 226.27706 35.86456 225.41464 -38.878720000000015 C 224.86507 -86.50809000000001 225.21598 -57.390090000000015 225.41464 -40.696990000000014 C 225.48897 -34.45128000000001 225.35396 -45.956190000000014 225.41464 -40.696990000000014 C 225.59421 -25.134690000000013 225.41464 -38.87877000000002 225.41464 -38.87877000000002" stroke-linecap="round" />
</g>
<g transform="matrix(1 0 0 1 335.4545454545 219.7732335732)" id="PyPWf8MdwCm9HniGa7_yJ"  >
<path style="stroke: rgb(0,0,0); stroke-width: 15; stroke-dasharray: none; stroke-linecap: butt; stroke-dashoffset: 0; stroke-linejoin: miter; stroke-miterlimit: 4; fill: rgb(255,255,255); fill-opacity: 0; fill-rule: nonzero; opacity: 1;"  transform=" translate(0, 0)" d="M 0 -76.13687 C 0 -76.13687 -88.18182 75.68131000000001 0 76.13586 C 88.18182 76.59040999999999 0 -76.13687 0 -76.13687 z" stroke-linecap="round" />
</g>
</svg>