<?xml version="1.0" encoding="UTF-8" standalone="no" ?>
<!DOCTYPE svg PUBLIC "-//W3C//DTD SVG 1.1//EN" "http://www.w3.org/Graphics/SVG/1.1/DTD/svg11.dtd">
<svg xmlns="http://www.w3.org/2000/svg" xmlns:xlink="http://www.w3.org/1999/xlink" version="1.1" width="500" height="500" viewBox="0 0 500 500" xml:space="preserve">
<desc>Created with Fabric.js 5.3.0</desc>
<defs>
</defs>
<g transform="matrix(7.8480000022 0 0 7.8479999992 250.00005 250.0000500001)" id="-lfXp_nSycqFHfVPXR2Gu"  >
<path style="stroke: rgb(0,0,0); stroke-width: 2; stroke-dasharray: none; stroke-linecap: butt; stroke-dashoffset: 0; stroke-linejoin: miter; stroke-miterlimit: 4; fill: none; fill-rule: nonzero; opacity: 1;"  transform=" translate(0, 0)" d="M 0 -28.66972 C 15.82569 -28.66972 28.66972 -15.825680000000002 28.66972 0 C 28.66972 15.82569 15.825680000000002 28.66972 0 28.66972 C -15.82569 28.66972 -28.66972 15.825680000000002 -28.66972 0 C -28.66972 -15.82569 -15.825680000000002 -28.66972 0 -28.66972 z" stroke-linecap="round" />
</g>
<g transform="matrix(1 0 0 1 -18.9220183486 323.1840754145)" id="0GVtLLXqJAsPGSGGPjjUD"  >
<path style="stroke: rgb(0,0,0); stroke-width: 1; stroke-dasharray: none; stroke-linecap: butt; stroke-dashoffset: 0; stroke-linejoin: miter; stroke-miterlimit: 4; fill: rgb(255,255,255); fill-opacity: 0; fill-rule: nonzero; opacity: 1;"  transform=" translate(0, 0)" d="M 0 0" stroke-linecap="round" />
</g>
<g transform="matrix(0.9876883406 -0.156434465 0.156434465 0.9876883406 250.00005 188.3067106059)" id="7qY0R_f7TVXCj4vbND2bX"  >
<path style="stroke: rgb(0,0,0); stroke-width: 15; stroke-dasharray: none; stroke-linecap: butt; stroke-dashoffset: 0; stroke-linejoin: miter; stroke-miterlimit: 4; fill: rgb(255,255,255); fill-opacity: 0; fill-rule: nonzero; opacity: 1;"  transform=" translate(-0.0000013346, 0.000002474)" d="M -141.46739 0.91709 C -142.17596 1.10101 -142.91732 0.7688699999999999 -143.25172999999998 0.11765999999999999 C -143.58613999999997 -0.53355 -143.42414 -1.32959 -142.86182 -1.7983099999999999 C -106.06797999999999 -32.46727 -62.85884 -70.43767 0.4129599999999982 -25.05652 C 64.40071 20.838140000000003 95.39328 13.081710000000001 142.16881 3.60435 L 142.16881 3.60435 C 142.64983 3.5068900000000003 143.13403 3.75643 143.33378000000002 4.20474 C 143.53353 4.65304 143.39527 5.179930000000001 143.00114000000002 5.4724 C 104.91104000000001 33.73791 57.85872000000002 70.42027999999999 0.41296000000002664 23.57989 C -56.150189999999974 -22.54083 -95.57420999999998 -10.995449999999998 -141.46738999999997 0.9170799999999986 z" stroke-linecap="round" />
</g>
<g transform="matrix(0.9876883406 -0.156434465 0.156434465 0.9876883406 250.0000541093 297.6024780813)" id="rl50muH1nqlMWBtnS6gMj"  >
<path style="stroke: rgb(0,0,0); stroke-width: 15; stroke-dasharray: none; stroke-linecap: butt; stroke-dashoffset: 0; stroke-linejoin: miter; stroke-miterlimit: 4; fill: rgb(255,255,255); fill-opacity: 0; fill-rule: nonzero; opacity: 1;"  transform=" translate(-0.0000013346, 0.000002474)" d="M -141.46739 0.91709 C -142.17596 1.10101 -142.91732 0.7688699999999999 -143.25172999999998 0.11765999999999999 C -143.58613999999997 -0.53355 -143.42414 -1.32959 -142.86182 -1.7983099999999999 C -106.06797999999999 -32.46727 -62.85884 -70.43767 0.4129599999999982 -25.05652 C 64.40071 20.838140000000003 95.39328 13.081710000000001 142.16881 3.60435 L 142.16881 3.60435 C 142.64983 3.5068900000000003 143.13403 3.75643 143.33378000000002 4.20474 C 143.53353 4.65304 143.39527 5.179930000000001 143.00114000000002 5.4724 C 104.91104000000001 33.73791 57.85872000000002 70.42027999999999 0.41296000000002664 23.57989 C -56.150189999999974 -22.54083 -95.57420999999998 -10.995449999999998 -141.46738999999997 0.9170799999999986 z" stroke-linecap="round" />
</g>
</svg>