<?xml version="1.0" encoding="UTF-8" standalone="no" ?>
<!DOCTYPE svg PUBLIC "-//W3C//DTD SVG 1.1//EN" "http://www.w3.org/Graphics/SVG/1.1/DTD/svg11.dtd">
<svg xmlns="http://www.w3.org/2000/svg" xmlns:xlink="http://www.w3.org/1999/xlink" version="1.1" width="500" height="500" viewBox="0 0 500 500" xml:space="preserve">
<desc>Created with Fabric.js 5.3.0</desc>
<defs>
</defs>
<g transform="matrix(7.8480000022 0 0 7.8479999992 250.00005 250.0000500001)" id="-lfXp_nSycqFHfVPXR2Gu"  >
<path style="stroke: rgb(0,0,0); stroke-width: 2; stroke-dasharray: none; stroke-linecap: butt; stroke-dashoffset: 0; stroke-linejoin: miter; stroke-miterlimit: 4; fill: none; fill-rule: nonzero; opacity: 1;"  transform=" translate(0, 0)" d="M 0 -28.66972 C 15.82569 -28.66972 28.66972 -15.825680000000002 28.66972 0 C 28.66972 15.82569 15.825680000000002 28.66972 0 28.66972 C -15.82569 28.66972 -28.66972 15.825680000000002 -28.66972 0 C -28.66972 -15.82569 -15.825680000000002 -28.66972 0 -28.66972 z" stroke-linecap="round" />
</g>
<g transform="matrix(1 0 0 1 -18.9220183486 323.1840754145)" id="0GVtLLXqJAsPGSGGPjjUD"  >
<path style="stroke: rgb(0,0,0); stroke-width: 1; stroke-dasharray: none; stroke-linecap: butt; stroke-dashoffset: 0; stroke-linejoin: miter; stroke-miterlimit: 4; fill: rgb(255,255,255); fill-opacity: 0; fill-rule: nonzero; opacity: 1;"  transform=" translate(0, 0)" d="M 0 0" stroke-linecap="round" />
</g>
<g transform="matrix(0.8191520443 0.5735764364 -0.652370773 0.9316820191 144.3080894427 176.0655984728)" id="QsyuxomKwpBxssvfwzSch"  >
<path style="stroke: rgb(0,0,0); stroke-width: 15; stroke-dasharray: none; stroke-linecap: butt; stroke-dashoffset: 0; stroke-linejoin: miter; stroke-miterlimit: 4; fill: rgb(255,255,255); fill-opacity: 0; fill-rule: nonzero; opacity: 1;"  transform=" translate(0, 0)" d="M 0 -159.40367 L 0 159.40367 z" stroke-linecap="round" />
</g>
<g transform="matrix(0.8191520443 0.5735764364 -0.6476522377 0.9249432523 167.4436254287 233.0121719498)" id="efhQUtAnboBh0y2QdOETy"  >
<path style="stroke: rgb(0,0,0); stroke-width: 15; stroke-dasharray: none; stroke-linecap: butt; stroke-dashoffset: 0; stroke-linejoin: miter; stroke-miterlimit: 4; fill: rgb(255,255,255); fill-opacity: 0; fill-rule: nonzero; opacity: 1;"  transform=" translate(0, 0)" d="M 0 -159.40367 L 0 159.40367 z" stroke-linecap="round" />
</g>
<g transform="matrix(0 1 -1.1343377965 0 286.9459167026 321.1793855478)" id="xZLEO9HXIqEqPtTBR98JZ"  >
<path style="stroke: rgb(0,0,0); stroke-width: 15; stroke-dasharray: none; stroke-linecap: butt; stroke-dashoffset: 0; stroke-linejoin: miter; stroke-miterlimit: 4; fill: rgb(255,255,255); fill-opacity: 0; fill-rule: nonzero; opacity: 1;"  transform=" translate(0, 0)" d="M 0 -159.40367 L 0 159.40367 z" stroke-linecap="round" />
</g>
<g transform="matrix(0 1 -1.1578466104 0 255.6377499588 375.4502085665)" id="A9szCTG0Xq1D9zre8CaRw"  >
<path style="stroke: rgb(0,0,0); stroke-width: 15; stroke-dasharray: none; stroke-linecap: butt; stroke-dashoffset: 0; stroke-linejoin: miter; stroke-miterlimit: 4; fill: rgb(255,255,255); fill-opacity: 0; fill-rule: nonzero; opacity: 1;"  transform=" translate(0, 0)" d="M 0 -159.40367 L 0 159.40367 z" stroke-linecap="round" />
</g>
<g transform="matrix(-0.8910065242 0.4539904997 -0.4570192239 -0.89695073 381.5822370737 177.017158469)" id="lRAism6_hQ44wn4V7WX7j"  >
<path style="stroke: rgb(0,0,0); stroke-width: 15; stroke-dasharray: none; stroke-linecap: butt; stroke-dashoffset: 0; stroke-linejoin: miter; stroke-miterlimit: 4; fill: rgb(255,255,255); fill-opacity: 0; fill-rule: nonzero; opacity: 1;"  transform=" translate(0, 0)" d="M 0 -159.40367 L 0 159.40367 z" stroke-linecap="round" />
</g>
<g transform="matrix(-0.8910065242 0.4539904997 -0.4526015917 -0.8882806386 318.9586099647 177.017158469)" id="TYS055TbQGNSDGFnPuaWU"  >
<path style="stroke: rgb(0,0,0); stroke-width: 15; stroke-dasharray: none; stroke-linecap: butt; stroke-dashoffset: 0; stroke-linejoin: miter; stroke-miterlimit: 4; fill: rgb(255,255,255); fill-opacity: 0; fill-rule: nonzero; opacity: 1;"  transform=" translate(0, 0)" d="M 0 -159.40367 L 0 159.40367 z" stroke-linecap="round" />
</g>
</svg>