<?xml version="1.0" encoding="UTF-8" standalone="no" ?>
<!DOCTYPE svg PUBLIC "-//W3C//DTD SVG 1.1//EN" "http://www.w3.org/Graphics/SVG/1.1/DTD/svg11.dtd">
<svg xmlns="http://www.w3.org/2000/svg" xmlns:xlink="http://www.w3.org/1999/xlink" version="1.1" width="500" height="500" viewBox="0 0 500 500" xml:space="preserve">
<desc>Created with Fabric.js 5.3.0</desc>
<defs>
</defs>
<g transform="matrix(7.8480000022 0 0 7.8479999992 250.00005 250.0000500001)" id="-lfXp_nSycqFHfVPXR2Gu"  >
<path style="stroke: rgb(0,0,0); stroke-width: 2; stroke-dasharray: none; stroke-linecap: butt; stroke-dashoffset: 0; stroke-linejoin: miter; stroke-miterlimit: 4; fill: none; fill-rule: nonzero; opacity: 1;"  transform=" translate(0, 0)" d="M 0 -28.66972 C 15.82569 -28.66972 28.66972 -15.825680000000002 28.66972 0 C 28.66972 15.82569 15.825680000000002 28.66972 0 28.66972 C -15.82569 28.66972 -28.66972 15.825680000000002 -28.66972 0 C -28.66972 -15.82569 -15.825680000000002 -28.66972 0 -28.66972 z" stroke-linecap="round" />
</g>
<g transform="matrix(1 0 0 1 -18.9220183486 323.1840754145)" id="0GVtLLXqJAsPGSGGPjjUD"  >
<path style="stroke: rgb(0,0,0); stroke-width: 1; stroke-dasharray: none; stroke-linecap: butt; stroke-dashoffset: 0; stroke-linejoin: miter; stroke-miterlimit: 4; fill: rgb(255,255,255); fill-opacity: 0; fill-rule: nonzero; opacity: 1;"  transform=" translate(0, 0)" d="M 0 0" stroke-linecap="round" />
</g>
<g transform="matrix(1 0 0 1 250 230)" id="woaMOTSJi26p9h7vdJFl3"  >
<path style="stroke: rgb(0,0,0); stroke-width: 15; stroke-dasharray: none; stroke-linecap: butt; stroke-dashoffset: 0; stroke-linejoin: miter; stroke-miterlimit: 4; fill: rgb(255,255,255); fill-opacity: 0; fill-rule: nonzero; opacity: 1;"  transform=" translate(0, 0)" d="M 90 30 L 50.97446 30 C 39.39058 30 30 39.39059 30 50.97446 L 30 130 L 130 130 L 91.90612 -117.61018999999999 L 91.90612 -117.61018999999999 C 90.8095 -124.73818999999999 84.67629 -130 77.46442 -130 L -77.15432 -130 L -77.15432 -130 C -84.5446 -130 -90.82954 -124.60803 -91.95329 -117.30369 L -130.00001 130 L -30.000010000000003 130 L -30.000010000000003 50.59568 L -30.000010000000003 50.59568 C -30.000010000000003 39.221000000000004 -39.22101000000001 30 -50.595690000000005 30 L -90.00001 30" stroke-linecap="round" />
</g>
<g transform="matrix(1 0 0 1 190 312.5)" id="uPn9PaP3-zpjL2gSlS2NJ"  >
<path style="stroke: rgb(0,0,0); stroke-width: 15; stroke-dasharray: none; stroke-linecap: butt; stroke-dashoffset: 0; stroke-linejoin: miter; stroke-miterlimit: 4; fill: rgb(255,255,255); fill-opacity: 0; fill-rule: nonzero; opacity: 1;"  transform=" translate(0, 0)" d="M 30 0 L -30 0 z" stroke-linecap="round" />
</g>
<g transform="matrix(1 0 0 1 310 312.5)" id="Pr0rqAYif1GP8qC4aCoW-"  >
<path style="stroke: rgb(0,0,0); stroke-width: 15; stroke-dasharray: none; stroke-linecap: butt; stroke-dashoffset: 0; stroke-linejoin: miter; stroke-miterlimit: 4; fill: rgb(255,255,255); fill-opacity: 0; fill-rule: nonzero; opacity: 1;"  transform=" translate(0, 0)" d="M 30 0 L -30 0 z" stroke-linecap="round" />
</g>
</svg>